<svg xmlns="http://www.w3.org/2000/svg" viewBox="0 0 32 32" role="img" aria-label="WhatsApp">
  <circle cx="16" cy="16" r="15" fill="#25D366"/>
  <path fill="#fff" d="M22.9 18.8c-.4-.2-2.1-1-2.4-1.1-.3-.1-.6-.2-.8.2-.2.3-.9 1.1-1.1 1.3-.2.2-.4.2-.8.1-.4-.2-1.5-.6-2.9-1.8-1.1-1-1.8-2.1-2-2.5-.2-.4 0-.6.2-.8.2-.2.4-.4.6-.7.2-.2.2-.4.4-.6.1-.2.1-.5 0-.7-.1-.2-.8-1.9-1.1-2.6-.3-.7-.6-.6-.8-.6h-.7c-.2 0-.7.1-1 .5-.3.4-1.3 1.2-1.3 3 0 1.8 1.3 3.5 1.5 3.7.2.2 2.6 4 6.3 5.6.9.4 1.6.6 2.1.8.9.3 1.7.3 2.3.2.7-.1 2.1-.9 2.4-1.7.3-.8.3-1.5.2-1.7-.2-.3-.4-.4-.8-.6Z"/>
</svg>
